<?xml version="1.0" encoding="UTF-8"?>
<!DOCTYPE svg PUBLIC "-//W3C//DTD SVG 1.1//EN" "http://www.w3.org/Graphics/SVG/1.1/DTD/svg11.dtd">
<!-- Creator: CorelDRAW 2020 (64 Bit) -->
<svg xmlns="http://www.w3.org/2000/svg" xml:space="preserve" width="58.4503mm" height="64.581mm" version="1.1" style="shape-rendering:geometricPrecision; text-rendering:geometricPrecision; image-rendering:optimizeQuality; fill-rule:evenodd; clip-rule:evenodd"
viewBox="0 0 5837.43 6449.7"
 xmlns:xlink="http://www.w3.org/1999/xlink"
 xmlns:xodm="http://www.corel.com/coreldraw/odm/2003">
 <defs>
  <style type="text/css">
   <![CDATA[
    .fil0 {fill:#343C54;fill-rule:nonzero}
    .fil1 {fill:#E89F71;fill-rule:nonzero}
   ]]>
  </style>
 </defs>
 <g id="Camada_x0020_1">
  <metadata id="CorelCorpID_0Corel-Layer"/>
  <path class="fil0" d="M897.11 1340.6l-203.9 256.67 -367.4 -291.89 58.8 -74 300.74 238.93 145.11 -182.65 66.65 52.95zm8.46 -846.25l3.14 132.16 -56.76 23.21 -21.22 -124.79 74.84 -30.58zm465.49 434.84l-267.93 210.18 -289.61 -369.2 267.92 -210.17 52.56 66.98 -194.1 152.25 67.85 86.5 156.64 -122.88 48.83 62.23 -156.65 122.89 67.85 86.49 194.1 -152.25 52.54 66.98zm348.92 -198.53l-83.77 43.75 -217.27 -415.91 83.78 -43.75 217.26 415.91zm700.03 -243.24l-102.45 29.42 -62.65 -89.4 -169.44 48.67 -5 108.85 -102.44 29.42 36.67 -498.74 109.53 -31.46 295.77 403.24zm-320.93 -284.42l-9.48 195.21 121.11 -34.78 -111.63 -160.42zm1152.93 281.11c-38.54,-5.08 -73.95,-15.96 -106.24,-32.62 -32.27,-16.68 -58.27,-37.34 -78.01,-62.05l53.08 -63.98c38.9,39.86 85.39,63.34 139.44,70.49 27.92,3.68 50.5,1.48 67.8,-6.59 17.31,-8.08 27.06,-20.55 29.28,-37.39 1.88,-14.17 -3.36,-26.59 -15.69,-37.23 -12.34,-10.65 -28.61,-19 -48.77,-25.03 -20.16,-6.04 -41.71,-13.63 -64.61,-22.74 -22.92,-9.11 -44.17,-18.9 -63.74,-29.38 -19.57,-10.47 -34.93,-25.68 -46.04,-45.63 -11.12,-19.95 -14.88,-43.43 -11.33,-70.47 2.76,-20.82 9.23,-39.02 19.38,-54.57 10.18,-15.57 22.4,-27.92 36.68,-37.08 14.27,-9.15 30.42,-16.15 48.42,-20.99 18,-4.82 35.72,-7.68 53.18,-8.52 17.48,-0.85 35.06,-0.11 52.78,2.24 65.14,8.6 120.06,36.36 164.81,83.29l-50.41 64.35c-36.47,-34.57 -78.62,-55.02 -126.47,-61.34 -25.7,-3.39 -47.3,-1.96 -64.8,4.3 -17.51,6.24 -27.22,16.68 -29.16,31.3 -1.4,10.65 2.53,20.17 11.79,28.6 9.23,8.44 21.68,15.72 37.34,21.84 15.64,6.11 33.07,12.36 52.27,18.74 19.22,6.38 38.16,14.05 56.81,23.05 18.65,9 35.42,19.32 50.33,30.99 14.93,11.67 26.28,27.14 34.11,46.42 7.82,19.29 10.08,41.35 6.81,66.16 -6.44,48.73 -29.37,83.33 -68.82,103.81 -39.45,20.48 -86.18,27.16 -140.25,20.02zm475.8 85.77l171.23 -436.88 317.04 124.27 -31.06 79.27 -229.67 -90.02 -40.12 102.35 185.35 72.65 -28.85 73.65 -185.36 -72.66 -40.12 102.35 229.67 90.03 -31.07 79.26 -317.04 -124.26zm667.8 316.56l-77.34 -54.34 269.76 -383.94 69.65 48.95 10.63 394.15 181.9 -258.88 76.79 53.95 -269.77 383.94 -71.29 -50.09 -10.37 -389.85 -179.97 256.13zm772.41 722l-70.58 -79.88 53.84 -94.98 -116.72 -132.11 -100.44 42.24 -70.58 -79.88 466.14 -181.08 75.45 85.4 -237.12 440.29zm119.03 -411.97l-180.37 75.27 83.44 94.46 96.92 -169.73z"/>
  <path class="fil0" d="M172.29 4956.04l-17.81 -31.1 78.01 -98.24 -90.47 -157.98 -124.2 17.55 -17.82 -31.11 418.21 -58.72 16.15 28.18 -262.07 331.43zm215.59 -323.54l-215.49 31.75 79.33 138.53 136.16 -170.28zm242.1 871.6l-27 9.75c-20.82,-34.25 -24.32,-76.65 -10.48,-127.18l28.87 -102.61 -67.92 -79.74 -116.42 99.16 -20.7 -24.3 298.5 -254.26 91.17 107.03c20.57,24.17 28.89,52.65 24.94,85.46 -3.94,32.79 -18,59.47 -42.16,80.06 -19.62,16.71 -42.9,26.24 -69.84,28.57 -26.19,2.68 -49.93,-3.33 -71.28,-18.02l-24.46 87.06c-12.12,42.21 -9.86,78.54 6.77,109.02zm82.53 -435.25l-136.88 116.6 69.73 81.86c15.02,17.64 34.57,26.48 58.68,26.56 24.32,0.36 45.17,-6.85 62.51,-21.62 17.92,-15.25 28.63,-34.92 32.14,-59 4.05,-24.07 -1.43,-44.89 -16.45,-62.52l-69.73 -81.87zm481.19 930.19l-26.22 11.52c-8.24,-16.04 -12.79,-32.42 -13.66,-49.13l-0.9 -27.55 -0.53 -25.19c-32.94,-3.45 -62.45,-14.52 -88.52,-33.26 -44.59,-32.02 -70.32,-74.62 -77.16,-127.83 -6.85,-53.19 5.73,-102.09 37.75,-146.68 29.93,-44.23 72.07,-71.68 126.39,-82.32 54.31,-10.65 102.93,-0.1 145.87,31.68 44.11,30.75 69.85,73.49 77.22,128.21 7.35,54.72 -5.24,103.48 -37.82,146.27 -18.31,25.48 -40.87,45.71 -67.72,60.68 -26.85,14.98 -55.53,23.23 -86.05,24.76l-0.33 22.52 0.6 23.18c0.7,15.68 4.39,30.05 11.09,43.13zm-111.54 -149.07c20.93,15.03 44.34,24.03 70.26,27 -3.51,-21.37 -11.87,-39.81 -25.11,-55.29l23.4 -16.29c17.01,20.48 27.18,44.12 30.49,70.86 25.22,-1.19 48.99,-8.03 71.3,-20.5 22.29,-12.49 41.07,-29.35 56.33,-50.59 27.04,-35.73 37.85,-76.71 32.42,-122.91 -5.42,-46.2 -26.27,-81.86 -62.5,-106.95 -35.34,-26.32 -75.7,-34.61 -121.08,-24.91 -45.36,9.72 -80.66,33.11 -105.89,70.15 -27.04,35.75 -37.81,76.65 -32.27,122.7 5.55,46.05 26.43,81.61 62.66,106.73zm655.37 382.35c-38.51,-15.37 -66.39,-41.17 -83.69,-77.41 -17.31,-36.26 -18.36,-73.45 -3.13,-111.61l93.62 -234.64 29.65 11.83 -92.37 231.52c-12.04,30.17 -11.4,59.79 1.96,88.83 14.02,29.31 35.96,49.92 65.8,61.82 30.51,12.17 60.6,12.33 90.28,0.45 29.87,-11.41 50.9,-32.36 63.08,-62.89l92.37 -231.52 29.65 11.82 -93.62 234.64c-15.21,38.16 -41.59,64.43 -79.09,78.82 -37.5,14.38 -75.67,13.82 -114.52,-1.67zm606.51 165.8l-31.4 -5.74 70.52 -385.7 31.41 5.74 -70.53 385.7zm414.42 -345.01l283.86 8.37 -0.89 30.23 -125.98 -3.71 -10.66 361.7 -31.92 -0.94 10.66 -361.7 -125.99 -3.72 0.91 -30.24zm673.96 356.13l-70.52 -385.71 238.04 -43.52 5.43 29.76 -206.63 37.77 27.21 148.79 156.48 -28.62 5.24 28.64 -156.5 28.62 27.2 148.77 206.63 -37.77 5.43 29.75 -238.03 43.52zm474.13 -527.56l264.66 -103.01 10.97 28.19 -117.45 45.72 131.26 337.2 -29.75 11.58 -131.27 -337.21 -117.45 45.72 -10.97 -28.2zm882.49 -17.84c-33.8,24.01 -70.61,33.43 -110.44,28.28 -39.84,-5.13 -71.66,-24.46 -95.44,-57.94l-146.28 -205.97 26.03 -18.49 144.33 203.24c18.81,26.48 44.03,42.01 75.67,46.56 32.25,4.13 61.45,-3.11 87.64,-21.71 26.8,-19.02 43.25,-44.22 49.39,-75.58 6.63,-31.28 0.44,-60.32 -18.6,-87.12l-144.32 -203.24 26.04 -18.49 146.28 205.97c23.77,33.5 31.53,69.89 23.26,109.21 -8.27,39.3 -29.45,71.06 -63.56,95.28zm647.27 -627.07l13.56 25.3c-30.85,25.59 -72.31,35.18 -124.33,28.81l-105.69 -13.68 -69.04 78.76 114.98 100.81 -21.05 24.01 -294.84 -258.49 92.69 -105.72c20.91,-23.86 47.89,-36.22 80.91,-37.06 33.02,-0.85 61.48,9.19 85.34,30.1 19.38,17 32.18,38.65 38.41,64.98 6.43,25.51 3.92,49.89 -7.52,73.13l89.69 11.57c43.51,5.86 79.15,-1.63 106.88,-22.51zm-442.62 -18.55l135.22 118.53 70.9 -80.87c15.25,-17.41 21.17,-38.04 17.76,-61.9 -3.18,-24.13 -13.32,-43.71 -30.45,-58.72 -17.69,-15.5 -38.72,-23.26 -63.05,-23.24 -24.4,-0.52 -44.21,7.92 -59.46,25.34l-70.92 80.87zm843.74 -565.59l-17.73 31.15 -124.25 -17.24 -90.08 158.19 78.25 98.05 -17.75 31.16 -263.13 -330.31 16.06 -28.23 418.62 57.23zm-388.2 -21.21l136.86 169.45 79 -138.73 -215.86 -30.72z"/>
  <path class="fil0" d="M4270.08 3709.78c-61.79,362.89 -307.68,566.22 -563.91,680.21l-0.01 0.05c-22.49,10.01 -45.05,19.31 -67.56,27.99 -240.62,92.65 -476.93,112.16 -565.77,116.27 -23.7,1.1 -36.91,1.1 -36.91,1.1l-19.27 0 -129.16 0 0 -430.77c-46.64,-58.23 -102.27,-109.76 -162.05,-153.5l-436.31 -275.23 0 929.11 708.62 0 58.42 0 483.31 0 66.15 0 734.73 0 0 -895.23 -70.28 0zm-1382.6 -1784.6l0 241.9 0 444.39 0 543.59 -413.8 -274.31c-66.6,-44.14 -131.33,-97.93 -184.56,-160.56l0 -108.72 0 -458.64 0 -233.76 0 -109.9 0 -109.91 598.36 0 0 109.91 0 116.01z"/>
  <path class="fil1" d="M3078.3 3347.8l-135.6 -89.89 -55.22 -36.6 -444.31 -294.53c-59.83,-39.1 -110.99,-80.62 -154.05,-123.52 -20.16,-20.08 -38.55,-40.48 -55.21,-61.06l0 -0.15c-185.15,-228.8 -158.31,-482.04 0,-615.73l0 -143.52c-432.19,70.76 -574.97,291.76 -574.97,291.76 -342.86,449.92 -124.15,863.07 462.4,1230.22l112.57 71.02 55.21 34.82 467.35 294.82c49.82,36.31 93.38,74.88 131.01,114.91 20.07,21.36 38.46,43.13 55.22,65.32 98.11,129.34 139.94,268.76 135.23,393.71 164.13,-6.16 359.02,-46.83 506.27,-99.21 25.72,-9.14 50.95,-18.92 75.66,-29.3 94.47,-362 -138.61,-711.14 -581.56,-1003.06l0 0zm-135.6 -1215c347.9,181.1 502.52,556.83 561.22,719.75l70.29 0 0 -693.59c0,0 -211.34,-117.55 -631.51,-171.36l0 145.19zm91.08 2527.43c-61.74,125.65 -184.87,210.72 -351.53,210.72 -734.31,0 -970.11,-726.43 -1060.75,-977.99l-70.29 0 0 792.12c0,0 330.38,256.15 1131.04,256.15 490.99,0 725,-184.54 813.78,-280.99l-462.25 0z"/>
 </g>
</svg>
