<svg xmlns="http://www.w3.org/2000/svg" xml:space="preserve" width="145.085" height="165.362" style="shape-rendering:geometricPrecision;text-rendering:geometricPrecision;image-rendering:optimizeQuality;fill-rule:evenodd;clip-rule:evenodd" viewBox="0 0 216.62 246.9">
  <path d="M211.27 153.11c-4.71 27.64-23.43 43.12-42.95 51.8-1.71.76-3.43 1.47-5.14 2.13-18.32 7.06-36.32 8.54-43.09 8.85-1.8.08-2.81.08-2.81.08h-11.31v-32.81c-3.55-4.44-7.79-8.36-12.34-11.69L60.4 150.51v70.76H216.63v-68.18h-5.35zM105.98 17.2v93.66L74.47 89.97c-5.07-3.36-10-7.46-14.06-12.23V-.01h45.57V17.2z" style="fill:#f7f4ef;fill-rule:nonzero"/>
  <path d="m120.51 125.55-10.33-6.85-4.21-2.79-33.84-22.43c-4.56-2.98-8.45-6.14-11.73-9.41a57.801 57.801 0 0 1-4.21-4.65v-.01c-14.1-17.43-12.06-36.71 0-46.89V21.59C23.28 26.98 12.4 43.81 12.4 43.81c-26.11 34.26-9.45 65.73 35.21 93.69l8.57 5.41 4.21 2.65 35.59 22.45c3.79 2.77 7.11 5.7 9.98 8.75a61.64 61.64 0 0 1 4.21 4.97c7.47 9.85 10.66 20.47 10.3 29.98 12.5-.47 27.34-3.57 38.56-7.56 1.96-.7 3.88-1.44 5.76-2.23 7.19-27.57-10.56-54.16-44.29-76.39zm-10.33-92.53c26.49 13.79 38.27 42.41 42.74 54.81h5.35V35.01s-16.1-8.95-48.09-13.05v11.06zm6.94 192.48c-4.7 9.57-14.08 16.05-26.77 16.05-55.92 0-73.88-55.32-80.78-74.48H4.22v60.33s25.16 19.51 86.14 19.51c37.39 0 55.21-14.05 61.97-21.4h-35.2z" style="fill:#343c54;fill-rule:nonzero"/>
</svg>
