<?xml version="1.0" encoding="UTF-8"?>
<!DOCTYPE svg PUBLIC "-//W3C//DTD SVG 1.1//EN" "http://www.w3.org/Graphics/SVG/1.1/DTD/svg11.dtd">
<!-- Creator: CorelDRAW 2020 (64 Bit) -->
<svg xmlns="http://www.w3.org/2000/svg" xml:space="preserve" width="38.387mm" height="43.752mm" version="1.1" style="shape-rendering:geometricPrecision; text-rendering:geometricPrecision; image-rendering:optimizeQuality; fill-rule:evenodd; clip-rule:evenodd"
viewBox="0 0 216.62 246.9"
 xmlns:xlink="http://www.w3.org/1999/xlink"
 xmlns:xodm="http://www.corel.com/coreldraw/odm/2003">
 <defs>
  <style type="text/css">
   <![CDATA[
    .fil1 {fill:#343C54;fill-rule:nonzero}
    .fil0 {fill:#E89F71;fill-rule:nonzero}
   ]]>
  </style>
 </defs>
 <g id="Camada_x0020_1">
  <metadata id="CorelCorpID_0Corel-Layer"/>
  <path class="fil0" d="M211.27 153.11c-4.71,27.64 -23.43,43.12 -42.95,51.8l-0 0c-1.71,0.76 -3.43,1.47 -5.14,2.13 -18.32,7.06 -36.32,8.54 -43.09,8.85 -1.8,0.08 -2.81,0.08 -2.81,0.08l-1.47 0 -9.84 0 0 -32.81c-3.55,-4.44 -7.79,-8.36 -12.34,-11.69l-33.23 -20.96 0 70.76 53.97 0 4.45 0 36.81 0 5.04 0 55.96 0 0 -68.18 -5.35 0zm-105.29 -135.91l0 18.42 0 33.84 0 41.4 -31.51 -20.89c-5.07,-3.36 -10,-7.46 -14.06,-12.23l0 -8.28 0 -34.93 0 -17.8 0 -8.37 0 -8.37 45.57 0 0 8.37 0 8.84z"/>
  <path class="fil1" d="M120.51 125.55l-10.33 -6.85 -4.21 -2.79 -33.84 -22.43c-4.56,-2.98 -8.45,-6.14 -11.73,-9.41 -1.54,-1.53 -2.94,-3.08 -4.21,-4.65l0 -0.01c-14.1,-17.43 -12.06,-36.71 0,-46.89l0 -10.93c-32.91,5.39 -43.79,22.22 -43.79,22.22 -26.11,34.26 -9.45,65.73 35.21,93.69l8.57 5.41 4.21 2.65 35.59 22.45c3.79,2.77 7.11,5.7 9.98,8.75 1.53,1.63 2.93,3.28 4.21,4.97 7.47,9.85 10.66,20.47 10.3,29.98 12.5,-0.47 27.34,-3.57 38.56,-7.56 1.96,-0.7 3.88,-1.44 5.76,-2.23 7.19,-27.57 -10.56,-54.16 -44.29,-76.39l0 0zm-10.33 -92.53c26.49,13.79 38.27,42.41 42.74,54.81l5.35 0 0 -52.82c0,0 -16.1,-8.95 -48.09,-13.05l0 11.06zm6.94 192.48c-4.7,9.57 -14.08,16.05 -26.77,16.05 -55.92,0 -73.88,-55.32 -80.78,-74.48l-5.35 0 0 60.33c0,0 25.16,19.51 86.14,19.51 37.39,0 55.21,-14.05 61.97,-21.4l-35.2 0z"/>
 </g>
</svg>
