<svg xmlns="http://www.w3.org/2000/svg" xml:space="preserve" width="140mm" height="132.568" style="shape-rendering:geometricPrecision;text-rendering:geometricPrecision;image-rendering:optimizeQuality;fill-rule:evenodd;clip-rule:evenodd" viewBox="0 0 13984.82 3503.72">
  <defs>
    <style>
      .fil0{fill:#f7f4ef;fill-rule:nonzero}
    </style>
  </defs>
  <g id="Camada_x0020_1">
    <g id="_3172543202976">
      <path d="M3537.5 3439.69h-43.15l-55.95-140.23h-219.1l-55.96 140.23h-43.14l188.78-471.92h39.1l189.43 471.92zm-208.98-418.65-95.74 244.03h192.13l-96.4-244.03zm975.54 398.42-12.15 32.36c-47.65-7.65-89.2-37.54-124.71-89.67l-71.46-106.51h-126.06v184.05h-38.44v-471.92h169.23c38.19 0 70.78 14.6 97.75 43.81 26.96 29.23 40.45 62.93 40.45 101.14 0 31-9.45 59.78-28.32 86.28-17.97 26.07-42.02 43.15-72.14 51.24l60.67 90.34c29.23 44.04 64.28 70.33 105.19 78.87zm-334.39-415.28v216.4h129.43c27.88 0 51.24-11.01 70.11-33.02 19.32-22.03 29-46.74 29-74.17 0-28.31-9.68-53.47-29-75.5-18.87-22.47-42.23-33.7-70.11-33.7h-129.43zm1144.07 469.88-17.52 29.67c-19.32-9.89-35.27-22.7-47.87-38.43l-20.23-26.29-18.19-24.26c-34.6 19.77-71.24 29.66-109.9 29.66-66.05 0-121.12-23.59-165.16-70.78-44.04-47.2-66.07-103.82-66.07-169.89-1.81-64.28 20.11-120.69 65.73-169.22 45.62-48.54 100.56-72.36 164.84-71.46 64.71-.9 119.88 22.82 165.5 71.12 45.62 48.31 67.53 104.83 65.73 169.56 0 37.75-7.86 73.36-23.59 106.84-15.73 33.49-37.98 61.68-66.74 84.62l15.5 22.24 16.84 22.26c11.7 14.82 25.39 26.29 41.13 34.37zm-213.71-67.41c31.02 0 60.23-7.64 87.64-22.93-18.42-18.42-39.55-30.57-63.36-36.41l11.45-32.34c31.02 8.08 57.54 24.03 79.56 47.86 23.81-18.88 42.23-42.25 55.28-70.11 13.03-27.87 19.55-57.54 19.55-88.98 1.35-53.94-16.86-101.57-54.61-142.92-37.76-41.35-83.15-61.57-136.17-60.67-53.04-.9-98.32 19.33-135.85 60.67-37.52 41.36-55.62 88.98-54.27 142.92-1.35 53.93 16.86 101.46 54.6 142.58 37.77 41.13 83.16 61.23 136.18 60.34zm825.22 37.75c-49.9 0-92.59-16.41-128.09-49.21-35.51-32.82-53.27-73.95-53.27-123.38v-304.05h38.44v300c0 39.1 13.92 71.91 41.78 98.42 28.78 26.51 62.48 39.79 101.14 39.79 39.55 0 73.25-13.28 101.12-39.79 28.31-26.06 42.46-58.88 42.46-98.42v-300h38.44v304.05c0 49.43-17.76 90.55-53.26 123.38-35.51 32.79-78.42 49.21-128.76 49.21zm664.07-4.71h-38.42v-471.92h38.42v471.92zm395.1-471.92h341.81v36.41h-151.69v435.51h-38.44v-435.51h-151.69v-36.41zm734.2 471.92v-471.92h291.24v36.41h-252.82v182.02h191.46v35.05h-191.46v182.02h252.82v36.41h-291.24zm674.88-471.92h341.8v36.41h-151.69v435.51h-38.43v-435.51h-151.69v-36.41zm912.17 476.63c-49.9 0-92.58-16.41-128.09-49.21-35.5-32.82-53.26-73.95-53.26-123.38v-304.05h38.43v300c0 39.1 13.93 71.91 41.79 98.42 28.77 26.51 62.47 39.79 101.13 39.79 39.56 0 73.25-13.28 101.13-39.79 28.31-26.06 42.46-58.88 42.46-98.42v-300h38.43v304.05c0 49.43-17.76 90.55-53.26 123.38-35.5 32.79-78.41 49.21-128.76 49.21zm995.77-24.94-12.14 32.36c-47.65-7.65-89.21-37.54-124.71-89.67l-71.46-106.51h-126.06v184.05h-38.44v-471.92h169.22c38.2 0 70.79 14.6 97.76 43.81 26.95 29.23 40.45 62.93 40.45 101.14 0 31-9.45 59.78-28.33 86.28-17.97 26.07-42.02 43.15-72.13 51.24l60.67 90.34c29.22 44.04 64.28 70.33 105.18 78.87zm-334.38-415.28v216.4h129.43c27.87 0 51.23-11.01 70.1-33.02 19.33-22.03 29.01-46.74 29.01-74.17 0-28.31-9.68-53.47-29.01-75.5-18.87-22.47-42.23-33.7-70.1-33.7h-129.43zm1097.56 435.51h-43.15l-55.95-140.23h-219.11l-55.95 140.23h-43.14l188.77-471.92h39.1l189.44 471.92zm-208.99-418.65-95.73 244.03h192.13l-96.41-244.03zM1670.51 1726.43c-118.53 696.22-1040.74 696.22-1040.74 696.22H504.6V31.03H.01v2450.34h1729.77v-754.94h-59.27zm1144.31 464.72c-233.19-52.62-407.1-229.87-435.35-571.05h1107.2c0-542.8-236.5-804.24-741.63-804.24-480.23 0-814.22 351.72-814.22 842.45 0 407.1 312.95 828.6 769.34 828.6 466.36 0 671.29-275.27 727.24-455.85l-59.27-31.56c-86.96 163.38-365.55 233.17-553.32 191.64zm-86.96-1316.02c191.07 0 333.99 247.58 333.99 685.71h-682.38c0-333.99 142.89-685.71 348.39-685.71zm1239.57-337.31c132.38 0 240.39-104.68 240.39-237.05 0-131.82-108.01-236.5-240.39-236.5-131.83 0-236.5 104.69-236.5 236.5 0 132.38 104.68 237.05 236.5 237.05zm250.91 1948.54V815.86h-431.46v1670.5h431.46zM5265.15 816.42s-181.66-13.84-337.85 69.23c-191.09 101.35-236.51 194.97-271.41 254.23-34.89 59.25-31.58 142.89 9.98 208.8 63.13 90.28 184.43 111.33 275.27 52.06 90.84-62.59 114.66-184.43 52.61-274.72-31.58-45.41-76.99-69.79-129.05-76.44-24.38-3.33-10.52-62.59 100.8-118.53 240.38-125.16 442 55.94 442 417.63v215.47c-608.71 153.41-901.17 188.32-901.17 567.72 0 355.02 399.91 355.02 399.91 355.02 241.5 0 443.66-123.52 501.27-271.94v271.4h343.96c4.43.55 7.74.55 7.74.55 3.33 0 6.65 0 9.98-.55h72.55v-6.09l4.45-934.94v-32.68c0-411.52-125.18-696.21-581.03-696.21zm142.36 1280.56c-31.02 83.63-111.34 177.25-229.3 177.25-226.54 0-226.54-229.32-226.54-229.32 0-177.8 114.66-341.18 455.85-417.62v469.69z" class="fil0"/>
      <path d="m8452.7 1169.23-535.59-355.04c-452.52-295.76-316.82-754.93 59.27-754.93 556.65 0 768.78 507.92 835.24 692.36h59.27V166.73S8571.24 0 7976.38 0c-550 0-720.59 264.2-720.59 264.2-289.14 379.41-104.69 727.79 389.91 1037.41l535.61 337.86c424.83 309.62 310.16 814.2-62.59 814.2-619.23 0-818.07-612.58-894.5-824.71h-59.27v667.97s278.59 216.01 953.76 216.01c560.53 0 723.91-285.25 723.91-285.25 261.45-379.41 69.8-755.47-389.93-1058.45zm3552.01-343.96c-217.67 0-490.74 158.97-569.94 369.99l-2.21 9.97V822.5h-435.92v1018.03c-295.22 390.48-769.32 388.27-955.98 346.71-231.52-51.5-404.33-227.63-432.02-566.6h1098.89c0-538.92-234.86-798.14-736.1-798.14-476.89 0-808.66 348.95-808.66 836.36 0 404.32 265.86 766.57 763.79 822.51 460.28 51.5 851.31-264.2 1070.09-565.52l435.92-605.93c.55-1.11 1.1-2.21 1.65-3.33v-.55c69.79-96.93 177.8-232.08 293.56-232.08 173.36 0 280.26 121.3 280.26 286.91v1122.7h432.03V1350.35c0-418.19-166.17-525.08-435.35-525.08zm-2050.45 55.94c189.98 0 331.77 245.37 331.77 680.71h-677.38c0-331.76 141.79-680.71 345.61-680.71zm1042.39 1599.59h435.92V1410.71l-435.92 605.94v464.15zM13403.8 816.41s-181.66-13.84-337.85 69.23c-191.09 101.35-236.51 194.97-271.41 254.23-34.9 59.25-31.58 142.89 9.98 208.8 63.13 90.28 184.43 111.33 275.27 52.06 90.84-62.59 114.66-184.43 52.61-274.72-31.58-45.41-76.99-69.79-129.05-76.44-24.38-3.33-10.52-62.59 100.8-118.53 240.38-125.16 442 55.94 442 417.63v215.47c-608.72 153.41-901.17 188.32-901.17 567.72 0 355.02 399.91 355.02 399.91 355.02 241.5 0 443.66-123.52 501.27-271.94v271.4h343.96c4.42.55 7.74.55 7.74.55 3.33 0 6.65 0 9.97-.55h72.56v-6.09l4.45-934.94v-32.68c0-411.52-125.18-696.21-581.03-696.21zm142.36 1280.56c-31.02 83.63-111.34 177.25-229.31 177.25-226.53 0-226.53-229.32-226.53-229.32 0-177.8 114.66-341.18 455.85-417.62v469.69z" style="fill:#343c54;fill-rule:nonzero"/>
      <path d="m2650.45 334.84-176.91 317.04h167.57l302.82-317.04z" style="fill:#f7f4ef"/>
    </g>
  </g>
</svg>
