<?xml version="1.0" encoding="UTF-8"?>
<!DOCTYPE svg PUBLIC "-//W3C//DTD SVG 1.1//EN" "http://www.w3.org/Graphics/SVG/1.1/DTD/svg11.dtd">
<!-- Creator: CorelDRAW 2020 (64 Bit) -->
<svg xmlns="http://www.w3.org/2000/svg" xml:space="preserve" width="140mm" height="35.0752mm" version="1.1"
    style="shape-rendering:geometricPrecision; text-rendering:geometricPrecision; image-rendering:optimizeQuality; fill-rule:evenodd; clip-rule:evenodd"
    viewBox="0 0 13984.82 3503.72" xmlns:xlink="http://www.w3.org/1999/xlink"
    xmlns:xodm="http://www.corel.com/coreldraw/odm/2003">
    <defs>
        <style type="text/css">
            <![CDATA[
            .fil1 {
                fill: #343C54;
                fill-rule: nonzero
            }

            .fil0 {
                fill: #E89F71;
                fill-rule: nonzero
            }
            ]]>
        </style>
    </defs>
    <g id="Camada_x0020_1">
        <metadata id="CorelCorpID_0Corel-Layer" />
        <path class="fil0"
            d="M3537.5 3439.69l-43.15 0 -55.95 -140.23 -219.1 0 -55.96 140.23 -43.14 0 188.78 -471.92 39.1 0 189.43 471.92zm-208.98 -418.65l-95.74 244.03 192.13 0 -96.4 -244.03zm975.54 398.42l-12.15 32.36c-47.65,-7.65 -89.2,-37.54 -124.71,-89.67l-71.46 -106.51 -126.06 0 0 184.05 -38.44 0 0 -471.92 169.23 0c38.19,0 70.78,14.6 97.75,43.81 26.96,29.23 40.45,62.93 40.45,101.14 0,31 -9.45,59.78 -28.32,86.28 -17.97,26.07 -42.02,43.15 -72.14,51.24l60.67 90.34c29.23,44.04 64.28,70.33 105.19,78.87zm-334.39 -415.28l0 216.4 129.43 0c27.88,0 51.24,-11.01 70.11,-33.02 19.32,-22.03 29,-46.74 29,-74.17 0,-28.31 -9.68,-53.47 -29,-75.5 -18.87,-22.47 -42.23,-33.7 -70.11,-33.7l-129.43 0zm1144.07 469.88l-17.52 29.67c-19.32,-9.89 -35.27,-22.7 -47.87,-38.43l-20.23 -26.29 -18.19 -24.26c-34.6,19.77 -71.24,29.66 -109.9,29.66 -66.05,0 -121.12,-23.59 -165.16,-70.78 -44.04,-47.2 -66.07,-103.82 -66.07,-169.89 -1.81,-64.28 20.11,-120.69 65.73,-169.22 45.62,-48.54 100.56,-72.36 164.84,-71.46 64.71,-0.9 119.88,22.82 165.5,71.12 45.62,48.31 67.53,104.83 65.73,169.56 0,37.75 -7.86,73.36 -23.59,106.84 -15.73,33.49 -37.98,61.68 -66.74,84.62l15.5 22.24 16.84 22.26c11.7,14.82 25.39,26.29 41.13,34.37zm-213.71 -67.41c31.02,0 60.23,-7.64 87.64,-22.93 -18.42,-18.42 -39.55,-30.57 -63.36,-36.41l11.45 -32.34c31.02,8.08 57.54,24.03 79.56,47.86 23.81,-18.88 42.23,-42.25 55.28,-70.11 13.03,-27.87 19.55,-57.54 19.55,-88.98 1.35,-53.94 -16.86,-101.57 -54.61,-142.92 -37.76,-41.35 -83.15,-61.57 -136.17,-60.67 -53.04,-0.9 -98.32,19.33 -135.85,60.67 -37.52,41.36 -55.62,88.98 -54.27,142.92 -1.35,53.93 16.86,101.46 54.6,142.58 37.77,41.13 83.16,61.23 136.18,60.34zm825.22 37.75c-49.9,0 -92.59,-16.41 -128.09,-49.21 -35.51,-32.82 -53.27,-73.95 -53.27,-123.38l0 -304.05 38.44 0 0 300c0,39.1 13.92,71.91 41.78,98.42 28.78,26.51 62.48,39.79 101.14,39.79 39.55,0 73.25,-13.28 101.12,-39.79 28.31,-26.06 42.46,-58.88 42.46,-98.42l0 -300 38.44 0 0 304.05c0,49.43 -17.76,90.55 -53.26,123.38 -35.51,32.79 -78.42,49.21 -128.76,49.21zm664.07 -4.71l-38.42 0 0 -471.92 38.42 0 0 471.92zm395.1 -471.92l341.81 0 0 36.41 -151.69 0 0 435.51 -38.44 0 0 -435.51 -151.69 0 0 -36.41zm734.2 471.92l0 -471.92 291.24 0 0 36.41 -252.82 0 0 182.02 191.46 0 0 35.05 -191.46 0 0 182.02 252.82 0 0 36.41 -291.24 0zm674.88 -471.92l341.8 0 0 36.41 -151.69 0 0 435.51 -38.43 0 0 -435.51 -151.69 0 0 -36.41zm912.17 476.63c-49.9,0 -92.58,-16.41 -128.09,-49.21 -35.5,-32.82 -53.26,-73.95 -53.26,-123.38l0 -304.05 38.43 0 0 300c0,39.1 13.93,71.91 41.79,98.42 28.77,26.51 62.47,39.79 101.13,39.79 39.56,0 73.25,-13.28 101.13,-39.79 28.31,-26.06 42.46,-58.88 42.46,-98.42l0 -300 38.43 0 0 304.05c0,49.43 -17.76,90.55 -53.26,123.38 -35.5,32.79 -78.41,49.21 -128.76,49.21zm995.77 -24.94l-12.14 32.36c-47.65,-7.65 -89.21,-37.54 -124.71,-89.67l-71.46 -106.51 -126.06 0 0 184.05 -38.44 0 0 -471.92 169.22 0c38.2,0 70.79,14.6 97.76,43.81 26.95,29.23 40.45,62.93 40.45,101.14 0,31 -9.45,59.78 -28.33,86.28 -17.97,26.07 -42.02,43.15 -72.13,51.24l60.67 90.34c29.22,44.04 64.28,70.33 105.18,78.87zm-334.38 -415.28l0 216.4 129.43 0c27.87,0 51.23,-11.01 70.1,-33.02 19.33,-22.03 29.01,-46.74 29.01,-74.17 0,-28.31 -9.68,-53.47 -29.01,-75.5 -18.87,-22.47 -42.23,-33.7 -70.1,-33.7l-129.43 0zm1097.56 435.51l-43.15 0 -55.95 -140.23 -219.11 0 -55.95 140.23 -43.14 0 188.77 -471.92 39.1 0 189.44 471.92zm-208.99 -418.65l-95.73 244.03 192.13 0 -96.41 -244.03z" />
        <path class="fil0"
            d="M1670.5 1726.42c-118.53,696.23 -1040.73,696.23 -1040.73,696.23l-125.17 0 0 -2391.63 -504.59 0 0 2450.35 1729.77 0 0 -754.95 -59.28 0zm979.96 -1391.57l-176.91 317.04 167.58 0 302.81 -317.04 -293.48 0zm164.36 1856.28c-233.2,-52.61 -407.1,-229.86 -435.35,-571.05l1107.19 0c0,-542.78 -236.49,-804.23 -741.62,-804.23 -480.22,0 -814.21,351.71 -814.21,842.45 0,407.1 312.94,828.6 769.33,828.6 466.35,0 671.29,-275.27 727.24,-455.85l-59.27 -31.56c-86.97,163.38 -365.55,233.17 -553.32,191.63l0 0zm-86.96 -1316.02c191.07,0 333.99,247.59 333.99,685.72l-682.38 0c0,-333.99 142.89,-685.72 348.39,-685.72zm1239.56 -337.3c132.39,0 240.4,-104.68 240.4,-237.04 0,-131.83 -108.01,-236.51 -240.4,-236.51 -131.82,0 -236.49,104.69 -236.49,236.51 0,132.37 104.68,237.04 236.49,237.04zm250.91 1948.54l0 -1670.5 -431.45 0 0 1670.5 431.45 0zm1046.82 -1669.94c0,0 -181.66,-13.84 -337.85,69.23 -191.09,101.35 -236.51,194.97 -271.4,254.23 -34.91,59.26 -31.59,142.88 9.96,208.8 63.14,90.28 184.43,111.32 275.27,52.06 90.84,-62.59 114.67,-184.43 52.63,-274.73 -31.59,-45.4 -77,-69.78 -129.06,-76.43 -24.37,-3.33 -10.52,-62.59 100.8,-118.53 240.39,-125.16 442,55.94 442,417.63l0 215.46c-608.71,153.42 -901.17,188.32 -901.17,567.73 0,355.02 399.91,355.02 399.91,355.02 241.5,0 443.66,-123.52 501.27,-271.94l0 271.4 343.96 0c4.43,0.55 7.74,0.55 7.74,0.55 3.33,0 6.64,0 9.98,-0.55l72.55 0 0 -6.09 4.44 -934.93 0 -32.69c0,-411.51 -125.16,-696.21 -581.02,-696.21l0 0zm142.36 1280.56c-31.03,83.63 -111.34,177.24 -229.3,177.24 -226.54,0 -226.54,-229.3 -226.54,-229.3 0,-177.81 114.66,-341.19 455.85,-417.62 0,0 0,79.19 0,172.25l0 297.43z" />
        <path class="fil1"
            d="M8452.7 1169.23l-535.59 -355.04c-452.52,-295.76 -316.82,-754.93 59.27,-754.93 556.65,0 768.78,507.92 835.24,692.36l59.27 0 0 -584.89c0,0 -299.65,-166.73 -894.51,-166.73 -550,0 -720.59,264.2 -720.59,264.2 -289.14,379.41 -104.69,727.79 389.91,1037.41l535.61 337.86c424.83,309.62 310.16,814.2 -62.59,814.2 -619.23,0 -818.07,-612.58 -894.5,-824.71l-59.27 0 0 667.97c0,0 278.59,216.01 953.76,216.01 560.53,0 723.91,-285.25 723.91,-285.25 261.45,-379.41 69.8,-755.47 -389.93,-1058.45l0 0zm3552.01 -343.96c-217.67,0 -490.74,158.97 -569.94,369.99l-2.21 9.97 0 -382.73 -435.92 0 0 1018.03c-295.22,390.48 -769.32,388.27 -955.98,346.71 -231.52,-51.5 -404.33,-227.63 -432.02,-566.6l1098.89 0c0,-538.92 -234.86,-798.14 -736.1,-798.14 -476.89,0 -808.66,348.95 -808.66,836.36 0,404.32 265.86,766.57 763.79,822.51 460.28,51.5 851.31,-264.2 1070.09,-565.52l435.92 -605.93c0.55,-1.11 1.1,-2.21 1.65,-3.33l0 -0.55c69.79,-96.93 177.8,-232.08 293.56,-232.08 173.36,0 280.26,121.3 280.26,286.91l0 1122.7 432.03 0 0 -1133.22c0,-418.19 -166.17,-525.08 -435.35,-525.08l0 0zm-2050.45 55.94c189.98,0 331.77,245.37 331.77,680.71l-677.38 0c0,-331.76 141.79,-680.71 345.61,-680.71l0 0zm1042.39 1599.59l435.92 0 0 -1070.09 -435.92 605.94 0 464.15zm2407.15 -1664.39c0,0 -181.66,-13.84 -337.85,69.23 -191.09,101.35 -236.51,194.97 -271.41,254.23 -34.9,59.25 -31.58,142.89 9.98,208.8 63.13,90.28 184.43,111.33 275.27,52.06 90.84,-62.59 114.66,-184.43 52.61,-274.72 -31.58,-45.41 -76.99,-69.79 -129.05,-76.44 -24.38,-3.33 -10.52,-62.59 100.8,-118.53 240.38,-125.16 442,55.94 442,417.63l0 215.47c-608.72,153.41 -901.17,188.32 -901.17,567.72 0,355.02 399.91,355.02 399.91,355.02 241.5,0 443.66,-123.52 501.27,-271.94l0 271.4 343.96 0c4.42,0.55 7.74,0.55 7.74,0.55 3.33,0 6.65,0 9.97,-0.55l72.56 0 0 -6.09 4.45 -934.94 0 -32.68c0,-411.52 -125.18,-696.21 -581.03,-696.21l0 0zm142.36 1280.56c-31.02,83.63 -111.34,177.25 -229.31,177.25 -226.53,0 -226.53,-229.32 -226.53,-229.32 0,-177.8 114.66,-341.18 455.85,-417.62 0,0 0,79.21 0,172.26l0 297.43z" />
    </g>
</svg>