<?xml version="1.0" standalone="no"?>
<!DOCTYPE svg PUBLIC "-//W3C//DTD SVG 20010904//EN"
 "http://www.w3.org/TR/2001/REC-SVG-20010904/DTD/svg10.dtd">
<svg version="1.0" xmlns="http://www.w3.org/2000/svg"
 width="24.000000pt" height="24.000000pt" viewBox="0 0 24.000000 24.000000"
 preserveAspectRatio="xMidYMid meet">

<g transform="translate(0.000000,24.000000) scale(0.100000,-0.100000)"
fill="#000000" stroke="none">
<path d="M83 188 c-71 -34 -37 -148 43 -148 23 0 74 55 74 80 0 27 -52 80 -77
79 -10 0 -28 -5 -40 -11z m71 -34 c36 -35 7 -84 -50 -84 -32 0 -34 2 -34 34 0
38 21 66 50 66 10 0 26 -7 34 -16z"/>
<path d="M103 154 c-17 -7 16 -44 39 -44 22 0 23 14 2 34 -16 17 -21 18 -41
10z"/>
<path d="M80 121 c0 -11 28 -41 38 -41 4 0 14 5 22 10 12 8 11 10 -8 10 -12 0
-25 7 -28 15 -7 16 -24 21 -24 6z"/>
</g>
</svg>
