<?xml version="1.0" encoding="UTF-8"?>
<!DOCTYPE svg PUBLIC "-//W3C//DTD SVG 1.1//EN" "http://www.w3.org/Graphics/SVG/1.1/DTD/svg11.dtd">
<!-- Creator: CorelDRAW 2020 (64 Bit) -->
<svg xmlns="http://www.w3.org/2000/svg" xml:space="preserve" width="73.0535mm" height="56.3566mm" version="1.1" style="shape-rendering:geometricPrecision; text-rendering:geometricPrecision; image-rendering:optimizeQuality; fill-rule:evenodd; clip-rule:evenodd"
viewBox="0 0 7297.77 5629.81"
 xmlns:xlink="http://www.w3.org/1999/xlink"
 xmlns:xodm="http://www.corel.com/coreldraw/odm/2003">
 <defs>
  <style type="text/css">
   <![CDATA[
    .fil2 {fill:#E89F71}
    .fil1 {fill:#F7F4EF}
    .fil0 {fill:#E89F71;fill-rule:nonzero}
   ]]>
  </style>
 </defs>
 <g id="Camada_x0020_1">
  <metadata id="CorelCorpID_0Corel-Layer"/>
  <path class="fil0" d="M877.13 5578.42l-34.61 0 -44.9 -112.5 -175.78 0 -44.89 112.5 -34.62 0 151.45 -378.62 31.37 0 151.99 378.62zm-167.68 -335.89l-76.81 195.81 154.15 0 -77.34 -195.81zm782.66 319.66l-9.73 25.96c-38.21,-6.12 -71.58,-30.11 -100.06,-71.94l-57.34 -85.46 -101.14 0 0 147.67 -30.84 0 0 -378.62 135.77 0c30.66,0 56.79,11.72 78.43,35.16 21.64,23.44 32.46,50.48 32.46,81.13 0,24.87 -7.57,47.96 -22.73,69.24 -14.42,20.91 -33.7,34.61 -57.87,41.1l48.68 72.48c23.45,35.33 51.57,56.43 84.37,63.27zm-268.27 -333.18l0 173.63 103.85 0c22.35,0 41.11,-8.83 56.24,-26.5 15.52,-17.67 23.27,-37.5 23.27,-59.5 0,-22.72 -7.74,-42.92 -23.27,-60.58 -15.13,-18.03 -33.89,-27.05 -56.24,-27.05l-103.85 0zm917.89 377l-14.06 23.81c-15.5,-7.93 -28.31,-18.22 -38.4,-30.84l-16.23 -21.09 -14.6 -19.47c-27.75,15.86 -57.15,23.8 -88.16,23.8 -53,0 -97.19,-18.93 -132.51,-56.79 -35.34,-37.87 -53.01,-83.29 -53.01,-136.3 -1.45,-51.58 16.14,-96.82 52.75,-135.77 36.59,-38.95 80.68,-58.05 132.24,-57.34 51.93,-0.71 96.18,18.31 132.78,57.08 36.6,38.75 54.17,84.09 52.75,136.03 0,30.28 -6.31,58.86 -18.93,85.73 -12.64,26.86 -30.47,49.49 -53.56,67.88l12.45 17.84 13.52 17.85c9.38,11.9 20.38,21.1 33,27.58zm-171.45 -54.07c24.88,0 48.32,-6.14 70.31,-18.39 -14.77,-14.79 -31.73,-24.52 -50.83,-29.21l9.19 -25.97c24.87,6.49 46.15,19.3 63.81,38.4 19.11,-15.14 33.9,-33.89 44.36,-56.24 10.46,-22.37 15.67,-46.16 15.67,-71.4 1.09,-43.28 -13.52,-81.5 -43.8,-114.68 -30.29,-33.17 -66.7,-49.39 -109.26,-48.67 -42.55,-0.72 -78.89,15.5 -109,48.67 -30.11,33.19 -44.61,71.41 -43.54,114.68 -1.07,43.26 13.54,81.4 43.81,114.39 30.3,33 66.71,49.13 109.27,48.42zm662.04 30.28c-40.03,0 -74.28,-13.16 -102.77,-39.48 -28.48,-26.32 -42.73,-59.32 -42.73,-98.98l0 -243.95 30.84 0 0 240.69c0,31.38 11.18,57.7 33.54,78.97 23.07,21.28 50.12,31.91 81.13,31.91 31.73,0 58.78,-10.63 81.15,-31.91 22.71,-20.91 34.06,-47.23 34.06,-78.97l0 -240.69 30.83 0 0 243.95c0,39.66 -14.24,72.65 -42.73,98.98 -28.49,26.32 -62.92,39.48 -103.31,39.48zm532.79 -3.79l-30.83 0 0 -378.62 30.83 0 0 378.62zm316.96 -378.62l274.24 0 0 29.2 -121.69 0 0 349.42 -30.83 0 0 -349.42 -121.71 0 0 -29.2zm589.04 378.62l0 -378.62 233.67 0 0 29.2 -202.83 0 0 146.04 153.61 0 0 28.13 -153.61 0 0 146.04 202.83 0 0 29.21 -233.67 0zm541.44 -378.62l274.24 0 0 29.2 -121.69 0 0 349.42 -30.84 0 0 -349.42 -121.7 0 0 -29.2zm731.83 382.4c-40.03,0 -74.28,-13.16 -102.77,-39.48 -28.48,-26.32 -42.73,-59.32 -42.73,-98.98l0 -243.95 30.84 0 0 240.69c0,31.38 11.18,57.7 33.53,78.97 23.08,21.28 50.13,31.91 81.14,31.91 31.73,0 58.78,-10.63 81.15,-31.91 22.71,-20.91 34.06,-47.23 34.06,-78.97l0 -240.69 30.83 0 0 243.95c0,39.66 -14.24,72.65 -42.73,98.98 -28.49,26.32 -62.92,39.48 -103.31,39.48zm798.89 -20.02l-9.73 25.96c-38.22,-6.12 -71.58,-30.11 -100.06,-71.94l-57.35 -85.46 -101.13 0 0 147.67 -30.84 0 0 -378.62 135.76 0c30.66,0 56.8,11.72 78.44,35.16 21.64,23.44 32.46,50.48 32.46,81.13 0,24.87 -7.57,47.96 -22.73,69.24 -14.42,20.91 -33.7,34.61 -57.87,41.1l48.67 72.48c23.46,35.33 51.58,56.43 84.38,63.27zm-268.27 -333.18l0 173.63 103.85 0c22.35,0 41.1,-8.83 56.24,-26.5 15.51,-17.67 23.27,-37.5 23.27,-59.5 0,-22.72 -7.75,-42.92 -23.27,-60.58 -15.14,-18.03 -33.89,-27.05 -56.24,-27.05l-103.85 0zm880.57 349.42l-34.61 0 -44.9 -112.5 -175.78 0 -44.89 112.5 -34.62 0 151.45 -378.62 31.37 0 151.99 378.62zm-167.68 -335.89l-76.81 195.81 154.15 0 -77.34 -195.81z"/>
  <path class="fil1" d="M1418.19 3292.5l-569.23 -377.33c-480.95,-314.34 -336.72,-802.35 62.98,-802.35 432.25,0 656.63,314.9 654.86,312.75 9.88,-2.16 19.73,-4.43 29.56,-6.8 80.83,-19.61 160.99,-47.25 234.21,-87.08 10.84,-5.89 21.54,-12.07 32.07,-18.52l0 -86.15c0,0 -318.47,-177.19 -950.69,-177.19 -584.55,0 -765.86,280.8 -765.86,280.8 -307.28,403.23 -111.24,773.51 414.43,1102.56l569.24 359.1c451.51,329.05 329.66,865.33 -66.52,865.33 -658.14,0 -869.46,-651.06 -950.69,-876.53l-62.99 0 0 709.94c0,0 296.1,229.57 1013.69,229.57 595.72,0 769.38,-303.17 769.38,-303.17 277.86,-403.23 74.17,-802.93 -414.42,-1124.94l0 0zm306.48 -621.13c34.72,69.99 58.92,132.55 74.98,177.29l62.98 0 0 -177.29 -137.97 0zm3468.64 255.57c-231.35,0 -521.56,168.95 -605.75,393.23l-2.35 10.6 0 -406.77 -463.29 0 0 1081.97c-313.75,415.01 -817.64,412.66 -1016.02,368.51 -246.07,-54.75 -429.72,-241.94 -459.16,-602.2l1167.91 0c0,-572.77 -249.59,-848.27 -782.33,-848.27 -506.84,0 -859.46,370.86 -859.46,888.89 0,429.72 282.56,814.7 811.78,874.16 489.18,54.75 904.78,-280.79 1137.29,-601.03l463.29 -644c0.59,-1.18 1.18,-2.35 1.77,-3.53l0 -0.59c74.16,-103.01 188.96,-246.65 311.99,-246.65 184.26,0 297.87,128.92 297.87,304.93l0 1193.22 459.15 0 0 -1204.4c0,-444.46 -176.6,-558.07 -462.68,-558.07l0 0zm-2179.25 59.47c201.91,0 352.61,260.77 352.61,723.46l-719.94 0c0,-352.6 150.7,-723.46 367.33,-723.46l0 0zm1107.86 1700.06l463.29 0 0 -1137.3 -463.29 644 0 493.3zm2558.34 -1768.94c0,0 -193.08,-14.72 -359.08,73.58 -203.09,107.72 -251.36,207.2 -288.45,270.2 -37.09,62.97 -33.56,151.86 10.59,221.92 67.12,95.95 196.04,118.33 292.58,55.33 96.53,-66.51 121.85,-196.02 55.91,-291.98 -33.54,-48.27 -81.81,-74.16 -137.16,-81.23 -25.89,-3.55 -11.18,-66.53 107.15,-125.98 255.48,-133.03 469.75,59.45 469.75,443.85l0 228.99c-646.94,163.06 -957.76,200.15 -957.76,603.38 0,377.34 425.02,377.34 425.02,377.34 256.66,0 471.53,-131.28 532.75,-289.04l0 288.44 365.56 0c4.71,0.6 8.24,0.6 8.24,0.6 3.53,0 7.07,0 10.6,-0.6l77.12 0 0 -6.46 4.7 -993.68 0 -34.72c0,-437.38 -133.03,-739.95 -617.51,-739.95l0 0zm151.29 1360.99c-32.97,88.89 -118.32,188.38 -243.71,188.38 -240.77,0 -240.77,-243.72 -240.77,-243.72 0,-188.95 121.85,-362.61 484.48,-443.85 0,0 0,84.18 0,183.08l0 316.1z"/>
  <path class="fil2" d="M3359.16 342.24l-188.01 336.96 178.09 0 321.84 -336.96 -311.92 0zm-1041.49 1459.64c-47.26,277.59 -214.73,451.05 -405.56,559.44 -15.85,10.23 -32.34,20.02 -49.48,29.33 -72.08,39.2 -155.55,70.31 -250.45,93.33 -17.26,4.19 -34.9,8.1 -52.92,11.76 -193.71,46.05 -347.7,46.11 -347.7,46.11l-133.04 0 0 -363.2c-52.45,-10.68 -107.91,-16.34 -166.61,-16.34 -106.28,0 -209.89,39.48 -270.02,130.79 -52.95,80.43 -56.87,178.71 -27.84,268.64 4.68,14.48 10.14,28.66 16.28,42.5l1001.42 0 57.36 0 173.51 0 49.48 0 468.54 0 0 -802.36 -62.98 0zm-1239.14 202.55l0 -2004.44 -536.28 0 0 2043.12c121.02,-30.81 247.86,-42.77 369.68,-42.77 55.18,0 110.8,1.3 166.61,4.09zm2455.32 291.36c-247.82,-55.93 -432.68,-244.3 -462.69,-606.93l1176.74 0c0,-576.88 -251.35,-854.73 -788.22,-854.73 -510.37,0 -865.33,373.81 -865.33,895.35 0,432.67 332.58,880.66 817.65,880.66 495.66,0 713.46,-292.57 772.92,-484.48l-62.99 -33.55c-92.41,173.65 -388.52,247.81 -588.07,203.68l0 0zm-92.41 -1398.68c203.09,0 354.96,263.14 354.96,728.77l-725.24 0c0,-354.96 151.87,-728.77 370.28,-728.77zm1317.43 -358.49c140.68,0 255.47,-111.26 255.47,-251.96 0,-140.1 -114.79,-251.36 -255.47,-251.36 -140.11,0 -251.37,111.25 -251.37,251.36 0,140.69 111.25,251.96 251.37,251.96zm266.66 2070.92l0 -1775.42 -458.57 0 0 1775.42 458.57 0zm1112.57 -1774.84c0,0 -193.08,-14.71 -359.09,73.58 -203.09,107.74 -251.37,207.21 -288.45,270.21 -37.08,62.98 -33.56,151.87 10.6,221.93 67.1,95.95 196.03,118.31 292.57,55.32 96.54,-66.51 121.85,-196.02 55.92,-291.98 -33.55,-48.27 -81.81,-74.17 -137.16,-81.24 -25.89,-3.53 -11.18,-66.51 107.15,-125.98 255.46,-133.03 469.74,59.47 469.74,443.87l0 228.98c-646.93,163.06 -957.75,200.15 -957.75,603.38 0,377.34 425.01,377.34 425.01,377.34 256.67,0 471.53,-131.27 532.75,-289.04l0 288.45 365.56 0c4.72,0.59 8.24,0.59 8.24,0.59 3.54,0 7.06,0 10.61,-0.59l77.1 0 0 -6.48 4.72 -993.66 0 -34.73c0,-437.38 -133.04,-739.96 -617.51,-739.96l0 0zm151.28 1361c-32.96,88.89 -118.33,188.37 -243.72,188.37 -240.76,0 -240.76,-243.7 -240.76,-243.7 0,-188.96 121.86,-362.61 484.48,-443.85 0,0 0,84.17 0,183.06l0 316.11z"/>
 </g>
</svg>
